<svg xmlns="http://www.w3.org/2000/svg" width="750" height="350">
  <rect width="750" height="350" fill="#fff"/>
  <text x="10" y="25" font-family="monospace" font-size="15" font-weight="bold" fill="#333">Coverage Report: 84.7%</text>
  <text x="10" y="55" font-family="monospace" font-size="12" fill="#333">auth/auth.go</text>
  <rect x="220" y="43" width="341" height="20" rx="2" fill="#4bb543"/>
  <rect x="561" y="43" width="59" height="20" rx="2" fill="#eee"/>
  <text x="630" y="55" font-family="monospace" font-size="12" fill="#333">85.4%</text>
  <text x="10" y="83" font-family="monospace" font-size="12" fill="#333">buffer/external.go</text>
  <rect x="220" y="71" width="335" height="20" rx="2" fill="#4bb543"/>
  <rect x="555" y="71" width="65" height="20" rx="2" fill="#eee"/>
  <text x="630" y="83" font-family="monospace" font-size="12" fill="#333">83.9%</text>
  <text x="10" y="111" font-family="monospace" font-size="12" fill="#333">buffer/internal.go</text>
  <rect x="220" y="99" width="343" height="20" rx="2" fill="#4bb543"/>
  <rect x="563" y="99" width="57" height="20" rx="2" fill="#eee"/>
  <text x="630" y="111" font-family="monospace" font-size="12" fill="#333">85.8%</text>
  <text x="10" y="139" font-family="monospace" font-size="12" fill="#333">concurrent/lru.go</text>
  <rect x="220" y="127" width="390" height="20" rx="2" fill="#4bb543"/>
  <rect x="610" y="127" width="10" height="20" rx="2" fill="#eee"/>
  <text x="630" y="139" font-family="monospace" font-size="12" fill="#333">97.6%</text>
  <text x="10" y="167" font-family="monospace" font-size="12" fill="#333">concurrent/map.go</text>
  <rect x="220" y="155" width="400" height="20" rx="2" fill="#4bb543"/>
  <rect x="620" y="155" width="0" height="20" rx="2" fill="#eee"/>
  <text x="630" y="167" font-family="monospace" font-size="12" fill="#333">100.0%</text>
  <text x="10" y="195" font-family="monospace" font-size="12" fill="#333">concurrent/set.go</text>
  <rect x="220" y="183" width="400" height="20" rx="2" fill="#4bb543"/>
  <rect x="620" y="183" width="0" height="20" rx="2" fill="#eee"/>
  <text x="630" y="195" font-family="monospace" font-size="12" fill="#333">100.0%</text>
  <text x="10" y="223" font-family="monospace" font-size="12" fill="#333">fanout/fanout.go</text>
  <rect x="220" y="211" width="400" height="20" rx="2" fill="#4bb543"/>
  <rect x="620" y="211" width="0" height="20" rx="2" fill="#eee"/>
  <text x="630" y="223" font-family="monospace" font-size="12" fill="#333">100.0%</text>
  <text x="10" y="251" font-family="monospace" font-size="12" fill="#333">main.go</text>
  <rect x="220" y="239" width="247" height="20" rx="2" fill="#d4c43a"/>
  <rect x="467" y="239" width="153" height="20" rx="2" fill="#eee"/>
  <text x="630" y="251" font-family="monospace" font-size="12" fill="#333">61.8%</text>
  <text x="10" y="279" font-family="monospace" font-size="12" fill="#333">synchronous/ringbuffer.go</text>
  <rect x="220" y="267" width="400" height="20" rx="2" fill="#4bb543"/>
  <rect x="620" y="267" width="0" height="20" rx="2" fill="#eee"/>
  <text x="630" y="279" font-family="monospace" font-size="12" fill="#333">100.0%</text>
  <text x="10" y="307" font-family="monospace" font-size="12" fill="#333">utils/utils.go</text>
  <rect x="220" y="295" width="352" height="20" rx="2" fill="#4bb543"/>
  <rect x="572" y="295" width="48" height="20" rx="2" fill="#eee"/>
  <text x="630" y="307" font-family="monospace" font-size="12" fill="#333">88.0%</text>
</svg>